<?xml version="1.0" encoding="UTF-8" standalone="no"?>
<!-- Created with Inkscape (http://www.inkscape.org/) -->

<svg
   xmlns:dc="http://purl.org/dc/elements/1.1/"
   xmlns:cc="http://creativecommons.org/ns#"
   xmlns:rdf="http://www.w3.org/1999/02/22-rdf-syntax-ns#"
   xmlns:svg="http://www.w3.org/2000/svg"
   xmlns="http://www.w3.org/2000/svg"
   xmlns:sodipodi="http://sodipodi.sourceforge.net/DTD/sodipodi-0.dtd"
   xmlns:inkscape="http://www.inkscape.org/namespaces/inkscape"
   width="400"
   height="400"
   id="svg4611"
   sodipodi:version="0.32"
   inkscape:version="0.92.4 (5da689c313, 2019-01-14)"
   version="1.0"
   sodipodi:docname="Greek_lc_mu.svg">
  <defs
     id="defs4613" />
  <sodipodi:namedview
     id="base"
     pagecolor="#ffffff"
     bordercolor="#666666"
     borderopacity="1.0"
     gridtolerance="10000"
     guidetolerance="10"
     objecttolerance="1.6"
     inkscape:pageopacity="0.0"
     inkscape:pageshadow="2"
     inkscape:zoom="0.7"
     inkscape:cx="85.90919"
     inkscape:cy="190.61883"
     inkscape:document-units="px"
     inkscape:current-layer="layer1"
     inkscape:object-bbox="true"
     inkscape:object-points="true"
     inkscape:object-nodes="true"
     inkscape:grid-points="true"
     inkscape:window-width="1920"
     inkscape:window-height="1017"
     inkscape:window-x="-8"
     inkscape:window-y="-8"
     width="400px"
     height="400px"
     showgrid="false"
     inkscape:window-maximized="1" />
  <metadata
     id="metadata4616">
    <rdf:RDF>
      <cc:Work
         rdf:about="">
        <dc:format>image/svg+xml</dc:format>
        <dc:type
           rdf:resource="http://purl.org/dc/dcmitype/StillImage" />
      </cc:Work>
    </rdf:RDF>
  </metadata>
  <g
     inkscape:label="Layer 1"
     inkscape:groupmode="layer"
     id="layer1"
     transform="translate(-256.6798,-531.7963)">
    <g
       aria-label="μ"
       style="font-style:normal;font-weight:normal;line-height:0%;font-family:'Times New Roman';text-align:start;text-anchor:start;fill:#000000;fill-opacity:1;stroke:none;stroke-width:1px;stroke-linecap:butt;stroke-linejoin:miter;stroke-opacity:1"
       id="text5540">
      <path
         d="m 485.73114,807.9458 q -35.35156,37.89063 -61.52344,37.89063 -16.79687,0 -31.25,-12.89063 v 10.35156 q 0,17.96875 5.46875,36.13282 6.25,20.11718 6.25,26.5625 0,8.98437 -5.66406,14.84375 -5.66406,5.85937 -14.0625,5.85937 -8.59375,0 -13.67187,-6.83594 -5.07813,-6.83593 -5.07813,-16.40625 0,-7.03125 5.07813,-25.39062 5.85937,-20.3125 5.85937,-39.45313 V 661.46143 h 32.22656 v 115.82031 q 0,17.57812 2.92969,25.78125 3.125,8.20312 10.74219,13.47656 7.8125,5.07813 17.57812,5.07813 17.38282,0 45.11719,-23.82813 V 661.46143 h 32.42188 v 135.74218 q 0,17.1875 3.51562,23.82813 3.51563,6.44531 11.91406,6.44531 13.28125,0 17.1875,-25.97656 h 7.03125 q -3.71093,44.33594 -37.5,44.33594 -14.64843,0 -24.41406,-9.76563 -9.57031,-9.96094 -10.15625,-28.125 z"
         style="font-size:400px;line-height:1.25;text-align:center;text-anchor:middle"
         id="path814" />
    </g>
  </g>
</svg>
